<svg version="1" xmlns="http://www.w3.org/2000/svg" width="266.667" height="266.667" viewBox="0 0 200 200"><path d="M84.9 1.9C76.1 4.7 69.5 8.8 63 15.6 38.5 41.1 45.7 82.5 77.5 98.1c29.3 14.3 64.9-1.6 73-32.6 1.7-6.8 1.9-19.9.4-26.5-3.8-16.7-18-31.9-34.7-37-8.4-2.6-23.3-2.7-31.3-.1z"/><path d="M48.8 106.4c-14.1 8-26.3 19.1-34.9 31.7-2.1 3.2-3.9 6.4-3.9 7.1 0 2.4 9.6 16.3 16.1 23.2 8.8 9.4 17.5 15.9 29.4 21.7 16.6 8.1 22.9 9.4 44 9.4 18.5 0 25.5-1.1 37.1-6l3.4-1.4-5-6.6c-6.2-8.2-8.4-15.3-7.8-24.5 1.2-16.6 13.5-30 30.4-33.1 5.6-1 14.4 0 18.5 2.1 4.1 2.2 3.2-.1-2.2-5.6-6.5-6.6-13.3-12-21.4-16.9-8.2-4.9-9.7-5.2-13.7-2.2-1.8 1.4-6 3.8-9.3 5.5-21.4 10.7-45.9 9.1-65.8-4.3-3.7-2.5-6.9-4.5-7-4.5-.1 0-3.7 2-7.9 4.4z"/><path d="M154.9 137.3c-9.1 3.4-15.8 9.9-17.9 17.5-3.7 13.5 1.9 27.1 13.7 32.9 18.3 8.9 39.4-4.1 39.2-24.2-.1-7.1-1.3-10.8-5.5-16.7-6-8.4-20.1-13-29.5-9.5zm15.8 10c.4.4-4.7 6.2-11.2 12.8l-12 12-1.2-2.8c-3.3-7.6 1.1-18.2 9.2-21.9 3-1.5 13.8-1.5 15.2-.1zm9.7 16.3c0 6.5-3.6 12.5-9.4 15.4-4.3 2.2-11 2.6-14.2.9-1.9-1-1.2-1.9 9.8-13 13.1-13.2 13.8-13.3 13.8-3.3z"/></svg>