<svg version="1" 
xmlns="http://www.w3.org/2000/svg" 
   width="385"
   height="385"
   viewBox="0 0 385 385" >
<path d="M 91.296637,363.94378 C 59.326602,360.80949 31.357293,341.5343 18.54694,313.80797 11.456296,298.4612 11.705857,301.74067 11.256165,218 c -0.288849,-53.78866 -0.08054,-76.98849 0.724386,-80.67615 1.456167,-6.67123 5.700415,-12.46435 11.727286,-16.00699 4.244976,-2.49522 5.762725,-2.81587 13.292163,-2.80822 9.384539,0.01 12.933995,1.30103 18.835319,6.85331 7.0944,6.67479 6.610943,0.86239 7.164681,86.13805 l 0.5,77 3.232679,6.60667 c 3.833321,7.83422 10.119307,13.99538 18.092175,17.73292 5.067082,2.37536 6.853741,2.66041 16.675146,2.66041 10.39456,0 11.33114,-0.17318 17.01625,-3.1464 3.30894,-1.73052 8.16071,-5.43899 10.7817,-8.24105 6.62786,-7.08572 8.88933,-12.72951 9.06084,-22.61255 0.11964,-6.89427 -0.24627,-8.78454 -2.6474,-13.67616 -3.39758,-6.92161 -9.70665,-13.49494 -16.09866,-16.77296 -6.57653,-3.37266 -12.14631,-9.23378 -14.03095,-14.76488 -2.00409,-5.88168 -1.98975,-8.73241 0.0744,-14.79036 4.31389,-12.66059 19.92613,-19.72967 33.21701,-15.04038 14.11338,4.97949 34.26288,22.52841 41.50323,36.14664 18.14043,34.12001 12.10603,70.85972 -16.00605,97.45087 -10.25819,9.70319 -19.30016,14.97245 -34.13329,19.89137 -4.8054,1.59356 -11.88709,3.17342 -15.73709,3.51082 -3.85,0.33739 -8.8,0.76636 -11,0.95326 -2.2,0.18689 -7.691513,-0.0221 -12.203363,-0.46444 z m 161.606323,-59.0221 c -5.96653,-0.92427 -9.69004,-2.90775 -14.22663,-7.5784 -4.96215,-5.10878 -6.35705,-9.57446 -7.65614,-24.51053 -2.57884,-29.64992 -14.81265,-55.10794 -36.24869,-75.43189 -17.95058,-17.01932 -43.03128,-29.89713 -66.88715,-34.34355 -12.41806,-2.31456 -20.28066,-8.90348 -23.03955,-19.30731 -2.40195,-9.05778 1.91182,-18.70008 10.9537,-24.4841 7.64515,-4.89054 14.05373,-5.30512 28.85785,-1.86684 25.23102,5.85994 48.87174,16.49598 69.64826,31.33498 11.1409,7.95705 30.86262,27.84634 38.93515,39.26596 3.69355,5.225 9.62673,15.35 13.18484,22.5 10.16099,20.41848 14.52416,35.92822 16.54622,58.81677 0.96148,10.88347 0.90342,13.59863 -0.38492,18 -3.64502,12.45257 -15.92544,19.73606 -29.68294,17.60491 z m 92.14198,-0.0296 c -6.21238,-1.19615 -12.97521,-5.65762 -16.47495,-10.86862 -2.60873,-3.8843 -3.06141,-5.67174 -3.79059,-14.96727 -2.79963,-35.68961 -7.93943,-57.01428 -19.65717,-81.55618 -8.25781,-17.29535 -17.3506,-30.95881 -30.61217,-46 C 238.77674,110.9715 192.35525,86.266172 134.55224,77.015018 120.12398,74.705828 114.24411,72.332668 109.9033,67.066523 106.77752,63.274401 104,56.160911 104,51.947588 c 0,-3.838523 2.62076,-10.7616 5.50566,-14.543891 C 113.01214,32.806462 123.06627,28 129.17626,28 c 5.00271,0 27.61083,3.351714 33.82374,5.014458 1.925,0.515183 8,2.057787 13.5,3.428009 C 280.96466,62.467884 361.30951,149.462 374.44952,250.7741 c 3.71196,28.61992 3.03203,37.60733 -3.43558,45.41234 -5.59331,6.74992 -16.73234,10.48407 -25.969,8.70563 z"/>
</svg>
