<svg
   version="1"
   id="svg10"
   width="385"
   height="385"
   viewBox="0 0 385 385"
  >
  <path
     d="m 32.125619,357.11735 c -1.69724,-1.58546 -3.54483,-4.08976 -4.105755,-5.5651 C 27.344166,349.77503 27,301.14768 27,207.45514 27,48.292399 26.431943,59.905679 34.40612,56.045447 38.049951,54.281498 40.570894,54 52.724007,54 h 14.092559 l 0.341717,-14.75 c 0.385201,-16.626963 1.413864,-19.721813 7.523491,-22.635291 4.280479,-2.041218 7.355973,-2.041218 11.636452,0 C 92.345599,19.488963 93.436862,22.668988 94,39 l 0.5,14.5 h 43 43 l 0.52007,-15 c 0.58032,-16.737632 1.15599,-18.465673 7.19009,-21.583162 4.71469,-2.435821 8.44561,-2.42412 12.48551,0.03916 6.06732,3.699479 6.76813,5.882207 7.14626,22.257581 l 0.34193,14.807529 43.15807,-0.260553 L 294.5,53.5 295,38.5 c 0.54071,-16.221252 1.06869,-17.927632 6.69493,-21.6373 5.36761,-3.539134 13.11876,-1.741835 17.19873,3.987959 1.81091,2.543186 2.08386,4.625354 2.32884,17.765089 L 321.5,53.5 337.18064,54 c 13.87768,0.44251 16.00482,0.740302 18.5,2.589935 C 361.89813,61.198836 361.5,50.87445 361.5,207.5 c 0,138.33863 -0.0615,143.10152 -1.88554,146.11446 C 355.42595,360.53287 369.27128,360 193.70146,360 H 35.211511 Z M 341.75437,230.25 341.5,119.5 194.25,119.24669 47,118.99338 V 229.99669 341 H 194.50437 342.00873 Z M 76.634859,312.92742 74,310.85484 V 295.60173 C 74,275.1283 73.104353,276 94.140137,276 114.86798,276 114,275.13718 114,295.74187 v 15.11297 l -2.63486,2.07258 C 108.97038,314.81114 107.38803,315 94,315 80.611966,315 79.029625,314.81114 76.634859,312.92742 Z M 146,314.32644 c -4.73289,-1.85345 -5,-2.86746 -5,-18.98143 C 141,274.88074 139.8451,276 160.96104,276 181.99685,276 181,275.05096 181,295.07778 c 0,20.20321 0.80367,19.35777 -18.65937,19.62915 C 154.17828,314.82074 146.825,314.64952 146,314.32644 Z M 210.72027,312.9946 208,310.85484 V 295.42742 C 208,274.90862 206.90199,276 227.54545,276 c 15.29146,0 15.58673,0.0413 18.07165,2.52619 2.50899,2.50899 2.52399,2.62787 2.20454,17.46709 -0.27396,12.72613 -0.58594,15.2052 -2.10458,16.72381 -1.52302,1.52299 -4.00571,1.82915 -17.02973,2.10009 -14.32224,0.29796 -15.41174,0.18744 -17.96706,-1.82258 z M 76.634859,247.92742 74,245.85484 v -14.99316 c 0,-8.24624 0.440501,-15.81625 0.978891,-16.82224 C 76.570788,211.06496 81.5855,210 94,210 c 12.4145,0 17.42921,1.06496 19.02111,4.03944 0.53839,1.00599 0.97889,8.40412 0.97889,16.44027 0,14.17979 -0.0725,14.68367 -2.45455,17.06574 C 109.15888,249.93203 108.67798,250 94.180313,250 80.609861,250 79.0329,249.81372 76.634859,247.92742 Z m 66.819691,-0.38197 C 141.07247,245.16338 141,244.6595 141,230.47971 c 0,-8.03615 0.4405,-15.43428 0.97889,-16.44027 C 143.57079,211.06496 148.5855,210 161,210 c 12.4145,0 17.42921,1.06496 19.02111,4.03944 0.53839,1.00599 0.97889,8.40412 0.97889,16.44027 0,14.17979 -0.0725,14.68367 -2.45455,17.06574 C 176.15626,249.93465 175.68911,250 161,250 c -14.68911,0 -15.15626,-0.0653 -17.54545,-2.45455 z M 210.72027,247.9946 208,245.85484 v -15.90437 -15.90436 l 2.70106,-1.77306 c 3.78168,-2.4824 27.26898,-3.14806 32.5926,-0.92371 4.53837,1.89625 4.98165,3.99253 4.53886,21.46442 -0.44207,17.4431 0.51347,16.59446 -19.14519,17.00342 -14.32224,0.29796 -15.41174,0.18744 -17.96706,-1.82258 z M 278.5,248.80505 c -1.1,-0.62377 -2.33061,-1.62258 -2.73469,-2.21959 -0.40408,-0.597 -0.74158,-8.10322 -0.75,-16.68047 -0.0198,-20.12547 -0.76699,-19.27032 17.26647,-19.75999 14.97049,-0.4065 19.81683,0.58124 21.55351,4.39285 1.2227,2.68353 1.66756,27.98817 0.54353,30.91735 -1.36598,3.55967 -5.7528,4.54596 -20.07916,4.51439 -8.3887,-0.0185 -14.58388,-0.47511 -15.79966,-1.16454 z M 76,182 C 74.173781,180.17378 74,178.66667 74,164.65499 74,144.3922 72.832146,145.5 94.193341,145.5 115.00474,145.5 114,144.50519 114,165.11078 114,185.0511 115.11291,184 94,184 79.333333,184 77.833333,183.83333 76,182 Z m 66.5567,-0.22251 C 141.31955,180.0112 141,176.54433 141,164.88828 141,144.51932 139.98838,145.5 161,145.5 c 21.03564,0 20,-1.01548 20,19.61078 0,19.9817 1.18236,18.88922 -20.4433,18.88922 -15.85841,0 -16.49866,-0.079 -18,-2.22251 z m 67.09829,0.39377 C 208.26468,180.63499 208,177.86098 208,164.82625 208,144.37665 206.83346,145.5 228.06927,145.5 c 13.8916,0 16.08086,0.22156 17.64502,1.78571 1.56474,1.56474 1.78571,3.7559 1.78571,17.70696 0,14.75082 -0.14703,16.03233 -2,17.43248 -1.58735,1.19944 -5.3208,1.51781 -18.09501,1.54305 -14.34691,0.0284 -16.27477,-0.16682 -17.75,-1.79694 z m 67,0 C 275.26468,180.63499 275,177.86098 275,164.82625 275,144.36498 273.81406,145.5 295.19334,145.5 315.9005,145.5 315,144.65089 315,164.17653 c 0,13.44296 -0.67742,17.24044 -3.3997,19.05816 -0.60517,0.40408 -8.34306,0.74158 -17.19531,0.75 -14.33431,0.0136 -16.27606,-0.18474 -17.75,-1.81343 z M 87.065471,91.99837 c 4.349868,-1.208379 9.057801,-5.3126 11.442236,-9.974965 C 101.7904,75.604644 100.30039,64.98397 95.565937,61.054723 94.185914,59.909405 94,60.266421 94,64.061831 94,70.772444 90.728973,76.491163 85.751417,78.482787 75.707158,82.501702 67.025856,75.390609 67.005577,63.127555 67.000703,60.180345 66.80255,59.91898 65.434063,61.054723 62.530729,63.464276 61,67.867931 61,73.810793 c 0,4.736817 0.523677,6.682279 2.637862,9.79966 5.472282,8.068919 13.818711,11.057237 23.427609,8.387917 z M 203.55366,90.517069 c 7.34772,-3.688359 9.94634,-8.115158 9.94634,-16.9438 0,-5.934572 -0.4006,-7.634975 -2.48839,-10.562431 -1.54959,-2.172795 -2.56312,-2.927341 -2.68645,-2 -0.10893,0.819039 -0.49203,3.712038 -0.85133,6.428886 -1.28682,9.730235 -10.18339,14.819885 -18.69095,10.692925 -5.31977,-2.580588 -6.80057,-4.903972 -7.51069,-11.784312 -0.30693,-2.973835 -0.90284,-5.620065 -1.32425,-5.880511 -1.21298,-0.749663 -5.94897,9.601367 -5.93817,12.978518 0.0145,4.522284 4.3095,12.932744 7.91585,15.500696 6.5797,4.685155 14.30507,5.245958 21.62804,1.570029 z m 112.21481,0.935203 c 10.74276,-4.488613 15.4633,-17.219294 9.96508,-26.87453 -3.36167,-5.903316 -4.73286,-5.732855 -4.73729,0.588925 -0.005,6.526123 -2.39261,10.84447 -7.27933,13.163368 -4.5265,2.147968 -7.42991,2.108783 -11.65527,-0.1573 C 297.65482,75.80932 295,70.780727 295,64.796987 c 0,-5.355969 -1.46089,-5.672511 -4.26573,-0.924289 -4.31651,7.307271 -2.95614,16.905427 3.27989,23.141457 5.81373,5.813738 14.31238,7.547554 21.75431,4.438117 z"
    />
</svg>
