<svg
   version="1"
   width="296"
   height="197"
   viewBox="0 0 296 197"
  >
    <path
     d="m 37.581526,174.97509 c -6.948572,-1.21142 -9.457785,-4.06026 -10.612462,-12.04886 -0.510868,-3.53443 -0.937898,-9.01373 -0.948957,-12.17623 -0.03477,-9.94202 -2.053381,-7.13994 -5.077215,7.04779 C 19.797591,163.17151 16.923188,167 14.033945,167 12.354428,167 8.0035774,164.34109 6.7653128,162.55796 5.6780931,160.99235 5.845272,146.68312 7.0082506,141.76435 14.504271,110.06026 18.626788,98.044407 23.354188,94.121013 c 2.527019,-2.097239 15.158555,-4.118536 25.745774,-4.119835 8.981883,-0.0011 9.854808,0.183432 13.55823,2.866177 6.412193,4.644969 14.69565,24.620145 18.301257,44.132645 0.660605,3.575 1.614976,8.65965 2.120825,11.29922 1.848137,9.64376 0.489918,14.9873 -4.486417,17.65055 -3.355451,1.79578 -7.202044,0.16984 -8.723689,-3.68748 C 68.420419,158.58723 65.026699,144.95727 65.011807,142.75 65.005313,141.7875 64.55,141 64,141 c -0.591697,0 -1.039371,3.98095 -1.096426,9.75 -0.138726,14.02712 -1.635878,20.22173 -5.403574,22.35781 -3.71097,2.10392 -13.368243,3.00925 -19.918474,1.86728 z m 61.249496,-1.50461 C 95.192678,171.49459 94.305667,167.98809 93.020359,150.5 90.387522,114.67719 90.134377,113.54833 84.177706,111.06757 82.1575,110.22622 80.333657,107.51706 76.75,100.03434 74.1375,94.579403 72,89.692598 72,89.174769 c 0,-0.517828 0.7875,-1.126236 1.75,-1.352016 0.9625,-0.225781 18.707884,-0.22998 39.43419,-0.0093 41.65432,0.443444 41.16054,0.354665 36.52753,6.567478 -1.27928,1.715505 -3.14791,5.3691 -4.15252,8.119099 -2.09828,5.74384 -5.1273,9.5 -7.66093,9.5 -3.70161,0 -5.68132,4.4977 -6.28018,14.26792 -0.31123,5.07765 -0.99574,16.20708 -1.52112,24.73208 -0.52539,8.525 -1.4178,16.71595 -1.98315,18.2021 -1.67735,4.40937 -5.74728,5.80308 -16.81416,5.75786 -6.59758,-0.0269 -10.67176,-0.51365 -12.468638,-1.48948 z m 68.634258,0.6215 c -3.84233,-1.6396 -4.24634,-2.98024 -7.04737,-23.3853 -0.78097,-5.68918 -2.52923,-5.75071 -3.68802,-0.12979 -3.14038,15.23294 -7.39956,19.61719 -14.0078,14.41914 -3.52124,-2.7698 -4.15141,-7.88008 -2.29107,-18.57919 4.81589,-27.69698 12.47226,-48.358393 19.87708,-53.640118 2.89526,-2.065132 4.50681,-2.306658 17.34039,-2.598832 20.18186,-0.459467 21.77754,0.516457 29.13997,17.82211 3.32203,7.80855 9.03342,30.55091 10.41049,41.45383 0.92013,7.28511 0.90249,9.88705 -0.0831,12.26658 -1.47446,3.55966 -5.21308,5.54426 -8.76501,4.65279 -2.96321,-0.74372 -6.09884,-7.12298 -7.03418,-14.31068 -0.32655,-2.50939 -1.02307,-5.39833 -1.54782,-6.41988 -1.90199,-3.70269 -3.11889,0.32421 -3.72899,12.33977 -0.82068,16.1628 -1.07434,16.43142 -15.81509,16.74771 -5.89859,0.12656 -11.64034,-0.1606 -12.75944,-0.63814 z m 65.55443,-0.37643 c -4.01355,-2.03075 -4.73534,-4.97143 -5.40761,-22.03146 -0.35076,-8.90125 -0.90901,-21.21583 -1.24055,-27.36573 l -0.6028,-11.18163 -3.63438,-0.62805 c -5.20246,-0.89903 -6.21926,-1.98533 -11.06561,-11.82198 -3.35417,-6.807951 -4.07157,-9.08331 -3.15293,-9.999996 0.8773,-0.875429 8.3232,-1.09299 28.3867,-0.829428 l 27.19747,0.357277 2.80284,3.142723 c 6.5273,7.318834 11.30084,21.029674 16.63005,47.765844 2.51266,12.60579 2.90355,16.17874 2.02399,18.5 -2.55104,6.73242 -8.71756,9.50878 -12.30797,5.54143 -0.91358,-1.0095 -2.59909,-5.847 -3.74558,-10.75 -2.66859,-11.41232 -2.74157,-11.63256 -3.66544,-11.06158 -0.42692,0.26386 -0.90203,3.55488 -1.05579,7.31339 -0.30261,7.39739 -1.92206,19.10388 -2.85063,20.60633 -2.16846,3.50863 -22.70352,5.28049 -28.31176,2.44286 z M 38.79827,81.638443 c -3.829763,-1.69978 -7.572812,-5.431477 -10.584598,-10.552501 -2.231469,-3.794228 -2.604266,-5.619709 -2.654838,-13 C 25.504616,50.173628 25.752089,49.068486 28.713085,44 35.225314,32.852689 40.033718,29.845738 48.736383,31.478368 52.468305,32.178481 60,38.888218 60,41.512752 c 0,0.648984 0.674993,2.533027 1.499983,4.18676 5.645985,11.317644 -0.179543,31.632799 -10.28129,35.853579 -4.098988,1.712667 -8.682955,1.744167 -12.420423,0.08535 z M 105.5,81.598277 C 102.05276,80.077537 96.556802,73.576862 94.444746,68.522 92.533307,63.947284 92.608944,53.024922 94.601232,45.924461 98.541625,31.881005 113.38209,26.315424 122.5206,35.453934 c 5.18216,5.182163 7.47235,10.62465 8.13043,19.321416 0.75779,10.014619 -0.5541,14.526913 -6.0449,20.791628 -6.00445,6.850769 -12.55857,8.919732 -19.10613,6.031299 z m 67.81524,0.343459 C 163.69587,79.026681 157.25485,64.511815 159.89928,51.708788 162.59688,38.648264 169.27753,31 177.98811,31 c 20.79723,0 27.70051,37.242727 9.11985,49.201008 -3.38379,2.177766 -9.71416,2.976698 -13.79272,1.740728 z m 66.1039,-0.45716 C 236.01814,79.99178 232.41978,75.72105 229.14429,69.289838 226.06281,63.23956 226.18547,52.964825 229.43464,44.968562 233.11869,35.902063 238.71068,31 245.36916,31 c 7.26108,0 12.40075,3.701085 16.66429,12 3.19894,6.226673 3.94093,19.160089 1.47036,25.629202 -4.43316,11.608047 -14.58333,17.025782 -24.08467,12.855374 z"
 />
</svg>
