<svg
   version="1"
   width="385"
   height="385"
   viewBox="0 0 385 385"
 >
  <path
     d="M 179,380.4186 C 133.02546,376.65756 93.077123,358.23793 60.923484,325.97514 25.140556,290.07074 5.9591751,243.52599 5.9175373,192.5 5.8590355,120.80764 46.074978,56.031287 110.75678,23.634033 125.65681,16.171035 145.60469,9.8679104 164,6.8102501 c 9.76157,-1.6225635 45.23843,-1.6225635 55,0 C 281.00594,17.116847 332.24439,55.6908 359.38954,112.5 c 24.23291,50.7145 23.521,113.90458 -1.85245,164.42615 C 329.91534,331.92435 279.13253,369.0273 218,378.87479 c -7.13073,1.14864 -31.86297,2.12767 -39,1.54381 z m 32.39715,-20.92606 c 32.50165,-4.2606 60.37811,-16.35353 85.35379,-37.02687 C 349.14249,279.09915 369.97172,208.5156 349.85889,142.5 338.06815,103.79972 310.43924,68.572376 275.99916,48.327594 258.06299,37.784243 241.10133,31.493256 218,26.816028 209.11675,25.017474 174.88274,25.060659 165,26.882885 110.19408,36.988258 67.311382,69.084593 42.779416,118.36109 16.341952,171.4651 20.484597,235.83352 53.574686,286.098 74.232334,317.47737 107.32023,342.49917 142,352.9672 c 15.79092,4.76647 16.67887,4.9711 28,6.45283 14.19233,1.85752 27.60114,1.881 41.39715,0.0725 z M 185.1269,304.50226 c -5.5875,-1.74272 -9.62342,-5.62998 -11.85915,-11.42234 C 171.64058,288.86421 171.5,283.17197 171.5,221.5 c 0,-63.49223 0.0977,-67.18324 1.86697,-70.5 4.42715,-8.29954 8.87875,-11 18.13303,-11 9.25428,0 13.70588,2.70046 18.13303,11 1.76962,3.3175 1.86697,7.01965 1.86697,71 v 67.5 l -2.36742,4.76552 c -2.71993,5.47511 -6.34365,8.39183 -12.86393,10.35414 -5.43103,1.6345 -5.52807,1.63348 -11.14175,-0.1174 z M 184.74052,118.63037 C 175.73937,115.27551 172,109.73402 172,99.749828 c 0,-8.293769 3.27205,-13.709857 10.44076,-17.282178 6.36822,-3.173418 12.18661,-3.197442 18.34248,-0.07574 8.1017,4.108453 10.41142,8.194507 10.38347,18.3691 -0.0204,7.42813 -2.39858,12.04052 -8.18132,15.86736 -4.67511,3.09384 -12.89536,3.99584 -18.24487,2.002 z"
     />
</svg>
