<?xml version="1.0" encoding="UTF-8" standalone="no"?>
<!-- Created with Inkscape (http://www.inkscape.org/) -->

<svg
   version="1"
   width="293"
   height="286"
   viewBox="0 0 293 286"
>
  <path
     d="M 68.5,281.84527 C 64.14995,279.46598 64,278.58172 64,255.30887 V 233 H 52.537513 c -13.384927,0 -19.608865,-1.80133 -26.446586,-7.65416 -5.332384,-4.56433 -8.518367,-9.56849 -10.557288,-16.58213 -1.407069,-4.84015 -1.559048,-14.72542 -1.312488,-85.36886 L 14.5,43.5 17.147962,37.852038 C 20.520054,30.659544 26.659544,24.520054 33.852038,21.147962 L 39.5,18.5 H 147 254.5 l 5.64796,2.647962 c 7.1925,3.372092 13.33199,9.511582 16.70408,16.704076 L 279.5,43.5 l 0.27885,79.89485 c 0.24656,70.64344 0.0946,80.52871 -1.31249,85.36886 -3.07944,10.59289 -10.17213,18.48591 -19.87304,22.11549 -5.53968,2.07266 -7.0016,2.1208 -64.4073,2.1208 h -58.73895 l -25.47354,21.13814 C 75.812055,282.48561 75.140511,283.00451 72.660202,282.96959 71.472091,282.95287 69.6,282.44692 68.5,281.84527 Z m 34.23197,-43.10998 c 11.42242,-9.49559 22.06622,-18.27059 23.65289,-19.5 L 129.26972,217 h 60.15325 60.15325 l 4.40335,-2.25 c 2.42184,-1.2375 5.32969,-3.52023 6.46189,-5.07272 2.01914,-2.7687 2.06374,-4.02669 2.33039,-65.72383 l 0.27184,-62.901105 -4.27184,1.859492 C 256.42233,83.934558 231.1,95.696202 202.5,109.04883 c -36.96951,17.26013 -53.01167,24.27486 -55.5,24.26839 -2.46641,-0.006 -19.15144,-7.3218 -56.5,-24.77188 C 61.35,94.925803 36.027646,83.146319 34.228101,82.368704 L 30.956203,80.95486 31.228101,143.72743 31.5,206.5 l 2.401069,3.36653 c 4.207498,5.89931 8.500174,7.0865 25.714072,7.11151 13.758509,0.02 15.351629,0.20798 17.75,2.09454 L 80,221.14516 v 17.42742 C 80,249.31086 80.376908,256 80.981969,256 c 0.540084,0 10.327584,-7.76912 21.750001,-17.26471 z M 205.67484,89.327614 263,62.655227 262.996,54.577614 c -0.005,-11.898922 -3.8792,-17.502859 -13.51743,-19.555203 -3.42463,-0.729234 -36.96964,-0.982269 -105.5,-0.795805 L 43.5,34.5 39.367886,36.867886 C 33.190354,40.407887 31,45.072378 31,54.687809 v 7.9155 l 57.25,26.682916 c 31.4875,14.675605 57.89118,26.689865 58.67484,26.698345 0.78366,0.008 27.22116,-11.98714 58.75,-26.656956 z"
    />
</svg>
