<svg version="1" xmlns="http://www.w3.org/2000/svg" width="266.667" height="266.667" viewBox="0 0 200 200"><path d="M17.3 44.6C11.1 48.3 8 54.1 8 62.1c0 7.8 2.6 13 8.5 17.1 14.4 10.1 34.2-1.9 32.2-19.5-.8-6.4-4.7-12.3-10.2-15.4-5.8-3.3-15.5-3.2-21.2.3zM79 45c-1.9 1.9-2 3.3-2 21.9v19.9l6 .4 6 .3V73h95v73H89v-24l-6 3-6 3v13.4c0 11.6.2 13.5 1.8 14.9 1.7 1.5 7.1 1.7 57.1 1.7 36.2 0 55.9-.4 57.2-1 1.8-1 1.9-2.7 1.9-56V46.1l-2.2-1.5c-2-1.4-9.1-1.6-57-1.6C82.3 43 81 43 79 45z"/><path d="M101.7 83.6c-.4.4-.7 5.6-.7 11.6V106h23.1l-.3-11.3-.3-11.2-10.6-.3c-5.8-.1-10.8.1-11.2.4zM131.2 87.2l.3 4.3h40v-8l-20.3-.3-20.3-.2.3 4.2zM15 88.7C6.7 93 5 101 5 134.9c0 19.9.2 23 1.6 23.5.9.3 9.3.6 18.9.6 13.3 0 17.5-.3 18.4-1.4 1.2-1.4 3.1-20.7 3.1-31.9v-6.8l5.2 3.6c2.9 1.9 6.5 3.5 8.1 3.5 3.3 0 27.4-11.9 30.1-14.9 1.2-1.3 1.9-3.5 1.9-6.3 0-3.4-.6-4.7-3.2-7-4.4-3.9-7.6-3.6-18.3 2.1l-9.3 4.8-12.8-8.5-12.8-8.6-8.7-.4c-7-.2-9.4 0-12.2 1.5zM131 102v4h34v-8h-34v4zM101 124v11h23v-22h-23v11zM131 117v4l20.3-.2 20.2-.3.3-3.8.3-3.7H131v4zM131 131v4h34.1l-.3-3.8-.3-3.7-16.7-.3-16.8-.2v4z"/></svg>